<svg width="50" height="51" viewBox="0 0 50 51" fill="none" xmlns="http://www.w3.org/2000/svg">
<g clip-path="url(#clip0_1426_2)">
<rect y="0.25" width="50" height="50" rx="3" fill="#ECFDFF"/>
<path fill-rule="evenodd" clip-rule="evenodd" d="M27.9221 20.9456C29.4431 19.1602 30.4726 16.9721 30.3006 14.5204C29.8049 7.45619 19.9713 9.01022 18.0585 12.5756C16.1457 16.141 16.373 25.1849 18.8451 25.8222C19.831 26.0763 21.9313 25.4538 24.0689 24.1654L22.7271 33.6575H30.6494L27.9221 20.9456Z" fill="#915B3C"/>
<path fill-rule="evenodd" clip-rule="evenodd" d="M28.5308 22.5359C29.5251 18.1122 32.3577 15.0968 31.9251 13.1196C31.6367 11.8015 30.868 10.9818 29.619 10.6606C28.9731 8.04734 26.8897 6.93583 23.3689 7.32605C18.0877 7.91137 14.8644 10.1046 16.2564 14.9306C17.536 14.9306 19.0807 14.4678 21.2167 15.2607C21.8945 15.5123 22.3792 16.2924 22.671 17.6011H23.6362C24.573 16.048 25.4968 15.4773 26.4074 15.889C27.318 16.3006 27.525 17.3005 27.0284 18.8887L27.5038 22.5359H28.5308Z" fill="#191847"/>
<path fill-rule="evenodd" clip-rule="evenodd" d="M26.1296 28.1556L23.2752 27.666C12.6847 36.8147 8.33479 54.3905 -4.6466 63.7011L-1.52209 67.574C20.9983 64.7857 26.5801 43.3474 26.1296 28.1556Z" fill="#E87613"/>
<path fill-rule="evenodd" clip-rule="evenodd" d="M38.5723 64.0263C27.1273 64.0263 18.7086 64.0263 13.3162 64.0263C12.1622 64.0263 12.3796 62.3599 12.5465 61.519C14.4719 51.814 21.9879 41.3526 21.9879 27.5379L29.2729 26.3955C35.2986 36.0866 37.3823 48.0182 38.5723 64.0263Z" fill="#DDE3E9"/>
<path fill-rule="evenodd" clip-rule="evenodd" d="M38.3696 35.9214C39.4277 35.6173 40.2656 34.9079 40.8833 33.7934C43.5459 28.9888 42.5843 26.3435 39.7388 25.474C36.8932 24.6045 34.3555 26.3955 29.8218 26.3955C29.5752 26.3955 29.3493 26.411 29.1442 26.4419L26.8636 26.5721C20.3203 48.748 18.5157 63.5434 21.4498 70.9583H41.3283C42.5061 73.7047 43.6331 76.0153 44.7094 77.8903H50.1259C50.6357 61.4077 46.7169 47.4181 38.3696 35.9214Z" fill="#FF9B21"/>
</g>
<defs>
<clipPath id="clip0_1426_2">
<rect y="0.25" width="50" height="50" rx="25" fill="white"/>
</clipPath>
</defs>
</svg>
