<svg width="196" height="51" viewBox="0 0 196 51" fill="none" xmlns="http://www.w3.org/2000/svg">
<path d="M152.16 14.0464C151.939 14.5873 151.425 15.0063 150.626 15.3075C149.828 15.6097 148.59 15.7556 146.919 15.7556C147.222 16.1839 147.477 16.6435 147.681 17.1271C148.115 18.1351 148.417 19.1947 148.578 20.2797C148.646 20.7216 148.683 21.1677 148.688 21.6137C148.695 23.0429 148.407 24.4583 147.842 25.7721C147.299 27.0354 146.516 28.1829 145.538 29.1519C144.562 30.1211 143.414 30.9017 142.152 31.452C140.84 32.0161 139.426 32.3035 137.997 32.2961C136.332 32.3027 134.689 31.917 133.201 31.1706L133.01 31.2831C132.324 31.6604 131.665 32.0815 131.035 32.5442C130.785 32.705 130.579 32.9244 130.434 33.1831C130.289 33.4419 130.211 33.7321 130.205 34.0283C130.202 34.2325 130.251 34.4347 130.346 34.6161C130.673 34.9808 131.082 35.2633 131.539 35.4394C132.105 35.6739 132.693 35.849 133.295 35.9594C133.993 36.0897 134.697 36.1835 135.405 36.2408C136.157 36.2971 136.908 36.3252 137.661 36.3252C138.954 36.3252 140.264 36.3805 141.594 36.492C142.841 36.591 144.071 36.8359 145.261 37.2215C146.565 37.6115 147.713 38.3988 148.545 39.4726C149.311 40.538 149.707 41.823 149.673 43.1328C149.685 44.1601 149.451 45.1755 148.99 46.0947C148.525 46.9935 147.847 47.7663 147.015 48.3469C146.053 49.0049 144.977 49.4821 143.842 49.7549C142.446 50.096 141.012 50.2588 139.574 50.2395C138.324 50.2415 137.076 50.153 135.839 49.9748C134.642 49.7999 133.456 49.5612 132.285 49.2598C131.155 48.9676 130.036 48.636 128.93 48.2656C127.893 47.9188 126.863 47.5491 125.842 47.1567L126.18 46.2291C126.369 45.7112 126.724 45.2682 127.19 44.9681C127.695 44.6006 128.305 44.4034 128.93 44.4053C129.357 44.4053 129.782 44.4626 130.195 44.5742C130.593 44.6805 130.988 44.8086 131.373 44.9577C132.307 45.3622 133.275 45.6865 134.265 45.9269C134.978 46.102 135.788 46.2604 136.694 46.4021C137.657 46.5454 138.629 46.6158 139.602 46.6127C140.167 46.6127 140.816 46.5845 141.551 46.5293C142.272 46.4781 142.982 46.332 143.664 46.0947C144.301 45.8764 144.879 45.5176 145.357 45.0452C145.598 44.7916 145.784 44.4917 145.905 44.1637C146.026 43.8358 146.078 43.4868 146.059 43.138V43.0286C146.056 42.8542 146.042 42.6801 146.017 42.5075C145.983 42.2774 145.907 42.0553 145.794 41.852C145.648 41.5999 145.457 41.3767 145.23 41.1933C144.918 40.9462 144.561 40.7608 144.178 40.6472C143.052 40.2909 141.887 40.0742 140.708 40.0021C139.566 39.9358 138.422 39.902 137.278 39.901C136.084 39.9045 134.891 39.8104 133.712 39.6196C132.586 39.4403 131.488 39.1177 130.445 38.6597C129.527 38.2616 128.697 37.6876 128.002 36.9704C127.356 36.2847 126.965 35.3995 126.894 34.4618V34.2367C126.9 34.0032 126.939 33.7719 127.007 33.5489C127.123 33.1997 127.303 32.8746 127.539 32.5921C127.915 32.1363 128.344 31.7269 128.817 31.3728C129.561 30.8124 130.345 30.3063 131.162 29.8585C130.298 29.191 129.561 28.3745 128.987 27.4479C128.513 26.6763 128.126 25.8549 127.833 24.9988C127.607 24.3301 127.451 23.6395 127.37 22.9383C127.316 22.3547 127.291 21.9608 127.291 21.7523V21.6148C127.281 20.1878 127.569 18.7744 128.138 17.4648C128.682 16.202 129.458 15.0516 130.426 14.0725C131.395 13.0955 132.544 12.3141 133.811 11.7713C135.127 11.2072 136.547 10.9198 137.98 10.9271C139.189 10.9334 140.387 11.1575 141.518 11.5889C142.745 12.0534 143.899 12.6904 144.945 13.4805C145.508 13.1238 146.106 12.8259 146.731 12.5915C147.487 12.3166 148.287 12.182 149.092 12.1944C149.63 12.2057 150.166 12.2696 150.691 12.3852C151.298 12.5102 151.899 12.6666 152.488 12.8469L152.16 14.0464ZM130.877 21.6148C130.869 22.5798 131.055 23.5376 131.424 24.4297C131.766 25.2684 132.272 26.0303 132.915 26.6701C133.558 27.31 134.323 27.8147 135.165 28.1545C136.974 28.8828 138.997 28.8828 140.807 28.1545C141.65 27.8132 142.416 27.3061 143.058 26.6636C143.7 26.0212 144.206 25.2565 144.544 24.4151C145.272 22.6083 145.272 20.592 144.544 18.7852C144.202 17.9489 143.696 17.1892 143.054 16.5509C142.413 15.9126 141.649 15.4087 140.809 15.0688C139 14.3405 136.977 14.3405 135.168 15.0688C134.324 15.4092 133.558 15.9155 132.915 16.5575C132.272 17.1994 131.766 17.9638 131.426 18.805C131.057 19.6976 130.872 20.6547 130.88 21.62M161.639 14.2184C160.687 14.2184 159.773 14.5956 159.1 15.2679C158.426 15.9402 158.046 16.8518 158.046 17.8025C158.046 18.7531 158.426 19.6647 159.1 20.3371C159.434 20.6697 159.829 20.9336 160.265 21.1137C160.701 21.2938 161.168 21.3865 161.639 21.3865C161.952 21.3834 162.264 21.3386 162.565 21.251C162.858 21.1656 163.141 21.0509 163.411 20.9071C163.5 20.8592 163.596 20.8206 163.693 20.7925C163.784 20.7616 163.879 20.7455 163.975 20.7445C164.121 20.7421 164.263 20.7811 164.387 20.8571C164.508 20.9301 164.621 21.0176 164.723 21.1166L164.819 21.2125C164.204 21.8009 163.436 22.2066 162.601 22.3839C162.287 22.4569 161.965 22.4933 161.643 22.4933C160.805 22.4942 159.983 22.2714 159.262 21.8482C158.458 21.3847 157.809 20.6947 157.398 19.8649C156.987 19.0352 156.832 18.1029 156.952 17.1855C157.071 16.2656 157.461 15.4016 158.073 14.7023C158.685 14.0031 159.491 13.5 160.39 13.2564C160.797 13.1397 161.219 13.0834 161.643 13.0866C161.959 13.0845 162.275 13.1178 162.585 13.1856C163.429 13.3661 164.208 13.7763 164.833 14.3705L164.737 14.4664C164.631 14.5766 164.509 14.6714 164.376 14.7478C164.24 14.8176 164.089 14.8523 163.936 14.8489C163.84 14.8511 163.744 14.8359 163.654 14.8041C163.57 14.7742 163.489 14.7365 163.411 14.6915C163.146 14.5383 162.861 14.4199 162.565 14.3393C162.262 14.2652 161.951 14.2247 161.639 14.2184ZM165.368 17.8025C165.369 16.9689 165.592 16.1506 166.015 15.4315C166.22 15.0834 166.468 14.7614 166.754 14.4747C167.334 13.9033 168.052 13.4895 168.839 13.2731C169.689 13.0369 170.589 13.0451 171.434 13.2966C172.279 13.5482 173.036 14.0329 173.617 14.6947C174.199 15.3565 174.583 16.1685 174.723 17.0375C174.863 17.9064 174.755 18.7971 174.41 19.6075C174.152 20.2223 173.764 20.7747 173.273 21.2278C172.782 21.6808 172.199 22.0238 171.564 22.2338C170.929 22.443 170.257 22.514 169.592 22.4421C168.927 22.3701 168.285 22.157 167.71 21.817C167.359 21.6155 167.035 21.3695 166.748 21.0853C166.466 20.7964 166.221 20.474 166.017 20.1255C165.606 19.4188 165.383 18.6192 165.368 17.8025ZM166.48 17.8025C166.482 18.4599 166.668 19.1038 167.016 19.6624C167.364 20.2211 167.861 20.6728 168.451 20.9671C169.041 21.2614 169.702 21.3869 170.36 21.3296C171.018 21.2722 171.646 21.0344 172.177 20.6424C172.705 20.249 173.115 19.7176 173.36 19.107C173.605 18.4964 173.675 17.8304 173.564 17.1823C173.452 16.5343 173.163 15.9296 172.728 15.4348C172.294 14.9401 171.73 14.5747 171.1 14.3789C170.564 14.2149 169.996 14.1789 169.444 14.2738C168.891 14.3688 168.369 14.592 167.919 14.9253C167.469 15.2587 167.104 15.6929 166.854 16.1928C166.604 16.6926 166.476 17.2441 166.48 17.8025ZM183.693 22.3579C183.65 22.3125 183.615 22.26 183.59 22.2026C183.558 22.1344 183.534 22.0627 183.518 21.9889C183.501 21.8867 183.492 21.7831 183.493 21.6794V21.3188C183.228 21.5655 182.936 21.7835 182.625 21.9691C182.38 22.1121 182.122 22.2318 181.854 22.3266C181.631 22.4031 181.399 22.4531 181.164 22.4756C180.957 22.4967 180.75 22.5071 180.543 22.5069C179.926 22.5131 179.316 22.3884 178.751 22.1411C178.212 21.9031 177.726 21.5605 177.322 21.1333C176.912 20.7009 176.591 20.1942 176.373 19.6409C175.914 18.4637 175.914 17.1579 176.373 15.9807C176.591 15.4274 176.913 14.9208 177.322 14.4883C177.735 14.0513 178.234 13.7037 178.789 13.4674C179.343 13.2311 179.94 13.111 180.543 13.1147C180.75 13.1147 180.957 13.1251 181.164 13.146C181.399 13.1678 181.631 13.2189 181.854 13.2981C182.122 13.3909 182.38 13.5097 182.625 13.6525C182.939 13.8328 183.234 14.0433 183.508 14.2799V9.92456H184.619V22.3579H183.693ZM180.537 14.2267C180.061 14.2219 179.59 14.3252 179.16 14.5289C178.754 14.7223 178.389 14.9928 178.086 15.3252C177.783 15.6612 177.547 16.0507 177.389 16.4737C177.222 16.901 177.138 17.3574 177.141 17.817C177.138 18.2829 177.222 18.7456 177.389 19.1823C177.546 19.6065 177.782 19.9973 178.086 20.3339C178.389 20.6633 178.754 20.9301 179.16 21.1187C179.593 21.3146 180.063 21.4105 180.537 21.4001C181.082 21.3997 181.622 21.2817 182.117 21.0541C182.635 20.8305 183.106 20.5135 183.508 20.1192V15.5305C183.108 15.1247 182.637 14.7961 182.117 14.5613C181.62 14.339 181.081 14.2242 180.537 14.2267ZM191.29 13.1095C192.065 13.1095 192.827 13.3027 193.507 13.6716C194.187 14.0404 194.764 14.5731 195.184 15.221C195.465 15.6545 195.678 16.1297 195.813 16.6279C195.839 16.728 195.854 16.8301 195.855 16.9322C195.858 17.0771 195.83 17.2209 195.773 17.3543C195.72 17.4815 195.646 17.5988 195.553 17.7014C195.461 17.8023 195.349 17.8828 195.224 17.9379C195.095 17.9971 194.956 18.0267 194.814 18.0244H187.708C187.735 18.7004 187.959 19.354 188.352 19.9057C188.745 20.4575 189.291 20.8836 189.923 21.1322C190.357 21.3042 190.821 21.3917 191.287 21.3897C191.454 21.3876 191.619 21.3709 191.781 21.3386C192.146 21.2637 192.5 21.1436 192.834 20.9811C192.997 20.905 193.155 20.8175 193.307 20.7195C193.394 20.6662 193.49 20.6281 193.59 20.607C193.682 20.5851 193.777 20.5736 193.871 20.5726C193.955 20.5726 194.039 20.583 194.12 20.6039C194.191 20.624 194.259 20.6523 194.323 20.6883C194.392 20.7279 194.455 20.7727 194.515 20.8238L194.718 20.9905C194.267 21.4362 193.741 21.7999 193.164 22.065C192.871 22.2005 192.566 22.3068 192.252 22.3829C191.938 22.4621 191.615 22.5017 191.29 22.5017C190.868 22.5033 190.448 22.4465 190.041 22.3328C189.646 22.2231 189.267 22.0641 188.913 21.8597C188.562 21.6571 188.24 21.4102 187.953 21.1249C187.374 20.5472 186.954 19.8303 186.735 19.0437C186.622 18.6377 186.565 18.2184 186.565 17.7972C186.563 17.1678 186.692 16.5466 186.944 15.9692C187.43 14.8481 188.331 13.9563 189.46 13.4784C190.038 13.2301 190.661 13.1045 191.29 13.1095ZM191.29 14.2184C190.415 14.213 189.568 14.5254 188.907 15.0969C188.261 15.6633 187.846 16.4455 187.739 17.2959C187.778 17.2053 187.829 17.1209 187.891 17.0458C187.928 17 187.976 16.9635 188.03 16.9394C188.084 16.9153 188.143 16.9043 188.202 16.9072H194.73C194.55 16.112 194.094 15.4053 193.443 14.9114C193.138 14.6808 192.795 14.5035 192.43 14.3872C192.066 14.271 191.685 14.214 191.302 14.2184H191.29ZM158.841 26.0284V38.4617H157.729V26.0284H158.841ZM161.448 30.6766C161.527 30.5761 161.614 30.482 161.707 30.3952C161.795 30.3066 161.891 30.2232 161.989 30.1451C162.083 30.0617 162.184 29.9867 162.291 29.92C162.642 29.7126 163.015 29.5437 163.403 29.4166C163.838 29.2811 164.293 29.2165 164.748 29.2248C165.172 29.2144 165.595 29.278 165.995 29.4166C166.332 29.5385 166.645 29.7209 166.917 29.9544C167.175 30.1795 167.392 30.4494 167.555 30.7506C167.725 31.0632 167.86 31.3936 167.956 31.7365C168.055 32.0919 168.124 32.4556 168.164 32.8225C168.205 33.1872 168.226 33.5541 168.227 33.9209V38.468H167.287C167.242 38.4001 167.202 38.3286 167.169 38.2543C167.12 38.1324 167.098 38.0018 167.104 37.8708V37.4518C166.856 37.6582 166.587 37.8375 166.3 37.9865C166.029 38.1314 165.745 38.2512 165.453 38.3471C165.188 38.4371 164.915 38.501 164.638 38.5378C164.391 38.5749 164.141 38.5937 163.891 38.5941H163.761C163.376 38.587 162.996 38.5188 162.633 38.3919C162.29 38.2737 161.972 38.0955 161.693 37.8656C161.423 37.6429 161.202 37.3668 161.044 37.0548C160.883 36.724 160.802 36.3603 160.807 35.9928C160.801 35.5914 160.887 35.194 161.059 34.8307C161.235 34.4743 161.5 34.169 161.829 33.9438C162.22 33.6793 162.657 33.4885 163.117 33.3811C163.72 33.2429 164.338 33.1785 164.957 33.1893C165.165 33.1893 165.385 33.1893 165.62 33.2174C165.854 33.2456 166.074 33.2539 166.277 33.2789C166.48 33.3039 166.655 33.3237 166.808 33.3467L167.089 33.3915C167.062 32.8702 166.967 32.3545 166.808 31.8574C166.692 31.5121 166.51 31.1927 166.272 30.9173C166.078 30.698 165.829 30.5345 165.55 30.4442C164.983 30.2696 164.377 30.2696 163.811 30.4442C163.537 30.538 163.275 30.6662 163.032 30.8267L162.751 31.0038C162.629 31.0716 162.49 31.104 162.35 31.0976C162.096 31.0905 161.851 30.998 161.656 30.835L161.448 30.6766ZM163.761 37.4821C164.018 37.4784 164.275 37.4523 164.528 37.4039C165.121 37.2869 165.699 37.1016 166.249 36.8515C166.539 36.7234 166.82 36.5806 167.095 36.4243V34.4337L166.813 34.3993C166.64 34.3775 166.467 34.3626 166.294 34.3545L165.636 34.3211C165.403 34.3211 165.177 34.3034 164.962 34.3034C164.554 34.3013 164.146 34.3284 163.741 34.3857C163.409 34.4307 163.086 34.5256 162.782 34.6671C162.529 34.7832 162.31 34.9627 162.147 35.1882C161.987 35.4279 161.906 35.7114 161.916 35.999C161.917 36.1939 161.963 36.3867 162.051 36.5618C162.144 36.7452 162.275 36.9057 162.435 37.035C162.602 37.1736 162.794 37.282 162.999 37.3528C163.236 37.431 163.484 37.4716 163.733 37.4716L163.761 37.4821ZM170.531 38.4617V26.0357H171.643V30.4869C171.896 30.2232 172.181 29.9908 172.488 29.7949C172.733 29.6393 172.994 29.5107 173.267 29.4114C173.494 29.328 173.732 29.2728 173.973 29.2488C174.182 29.2302 174.392 29.2208 174.602 29.2207C175.205 29.2144 175.803 29.3333 176.357 29.5698C176.912 29.8062 177.411 30.1551 177.823 30.5943C178.23 31.0278 178.55 31.5343 178.768 32.0867C179.23 33.2634 179.23 34.5701 178.768 35.7468C178.551 36.2987 178.23 36.8041 177.823 37.2361C177.418 37.6627 176.932 38.0052 176.393 38.2439C175.829 38.492 175.218 38.6178 174.602 38.6128C174.405 38.6128 174.195 38.6128 173.976 38.5816C173.737 38.5561 173.503 38.5051 173.275 38.4294C173.004 38.3366 172.743 38.215 172.497 38.0667C172.192 37.8766 171.909 37.6548 171.651 37.4049V37.9511C171.657 38.0625 171.643 38.1742 171.608 38.2804C171.583 38.3481 171.553 38.4096 171.521 38.4742L170.531 38.4617ZM174.599 37.5029C175.075 37.5081 175.546 37.406 175.976 37.2038C176.382 37.0101 176.747 36.7405 177.051 36.4097C177.353 36.0741 177.591 35.6843 177.75 35.2612C177.914 34.8318 177.998 34.3774 177.996 33.9178C177.997 33.4499 177.914 32.9856 177.75 32.5473C177.593 32.1231 177.355 31.7328 177.051 31.3978C176.748 31.0668 176.383 30.7989 175.976 30.6099C175.543 30.4162 175.073 30.3201 174.599 30.3285C174.331 30.3285 174.066 30.3598 173.806 30.4213C173.538 30.4838 173.277 30.5703 173.025 30.6808C172.511 30.9129 172.043 31.2352 171.643 31.6323V36.2127C172.036 36.6159 172.506 36.9376 173.025 37.159C173.278 37.2674 173.538 37.3528 173.806 37.4143C174.067 37.4748 174.334 37.505 174.602 37.505L174.599 37.5029ZM179.886 37.1757L180.325 36.9568C180.437 36.8995 180.561 36.8709 180.686 36.8734C180.788 36.8734 180.889 36.8859 180.989 36.9078C181.126 36.9495 181.256 37.0152 181.372 37.0996C181.728 37.3473 182.153 37.4791 182.588 37.4769C182.83 37.4769 183.069 37.4435 183.302 37.3758C183.534 37.3132 183.755 37.2101 183.954 37.0735C184.15 36.9401 184.314 36.765 184.435 36.5618C184.566 36.3388 184.636 36.0855 184.638 35.8271C184.63 35.6589 184.597 35.4928 184.54 35.3341C184.479 35.1741 184.383 35.0298 184.258 34.912C184.089 34.7595 183.899 34.6308 183.694 34.5296C183.408 34.3843 183.112 34.259 182.808 34.1544L182.616 34.0918C182.315 33.9876 182.016 33.8792 181.719 33.7604C181.432 33.6454 181.163 33.4899 180.921 33.2987C180.685 33.1057 180.492 32.8648 180.357 32.5921C180.198 32.2564 180.121 31.8876 180.134 31.5166C180.13 31.1888 180.209 30.8653 180.365 30.5765C180.516 30.3045 180.721 30.0659 180.969 29.8783C181.218 29.6885 181.499 29.5435 181.798 29.4499C182.093 29.3541 182.4 29.2978 182.709 29.2832H182.788C183.078 29.2915 183.364 29.3478 183.635 29.4499C183.874 29.5396 184.104 29.6563 184.317 29.7959C184.504 29.9179 184.679 30.0565 184.839 30.2097C184.986 30.3514 185.121 30.4723 185.2 30.5703L185.037 30.7089C184.943 30.7891 184.842 30.859 184.735 30.9194C184.652 30.9731 184.556 31.005 184.458 31.0119C184.359 31.0188 184.26 31.0006 184.17 30.959C184.097 30.9288 184.025 30.894 183.956 30.8548C183.883 30.8152 183.809 30.7704 183.736 30.7256C183.661 30.6771 183.582 30.6329 183.502 30.5932C183.366 30.5192 183.219 30.4671 183.067 30.4379C182.725 30.3696 182.371 30.4048 182.049 30.539C181.88 30.6099 181.725 30.711 181.592 30.8381C181.482 30.9391 181.394 31.062 181.335 31.1987C181.288 31.2973 181.261 31.4043 181.257 31.5135C181.248 31.7261 181.3 31.9356 181.406 32.119C181.51 32.2857 181.647 32.4275 181.809 32.539C181.985 32.6578 182.175 32.7578 182.373 32.8339C182.585 32.9131 182.799 32.9923 183.019 33.0684L183.107 33.0934C183.439 33.2028 183.763 33.33 184.08 33.4759C184.385 33.6197 184.67 33.8021 184.926 34.0199C185.172 34.2304 185.374 34.4868 185.522 34.7745C185.68 35.0975 185.758 35.4529 185.75 35.8125C185.751 36.1805 185.668 36.544 185.505 36.8745C185.342 37.2101 185.112 37.5102 184.831 37.7551C184.535 38.0157 184.194 38.221 183.824 38.3585C183.428 38.5076 183.008 38.5826 182.585 38.5805C182.054 38.5819 181.53 38.4554 181.059 38.2116C180.586 37.9708 180.182 37.6143 179.886 37.1757ZM107.745 26.1056C107.624 26.1368 107.501 26.1618 107.378 26.1785C107.509 26.1952 107.637 26.2202 107.765 26.2546L108.12 26.3505C108.221 26.3786 108.326 26.413 108.424 26.4484L115.968 30.2524L118.735 31.6594L122.386 33.4988C122.72 33.6677 123.024 33.8897 123.288 34.1554C123.561 34.4295 123.799 34.738 123.994 35.0725C124.191 35.405 124.346 35.7604 124.456 36.1314C124.573 36.4951 124.632 36.8755 124.631 37.257V37.7676L118.193 34.5316L117.277 34.0699L114.998 32.9215L114.473 32.6567L107.037 28.9205C106.595 28.7066 106.167 28.4668 105.754 28.2024C105.496 28.0336 105.269 27.8213 105.085 27.575C104.943 27.3825 104.854 27.156 104.828 26.9185C104.802 26.6229 104.789 26.3262 104.792 26.0295V25.9273C104.789 25.6303 104.8 25.3333 104.828 25.0384C104.857 24.8299 104.946 24.6329 105.085 24.4756C105.275 24.2723 105.502 24.1056 105.754 23.9857C106.055 23.8294 106.484 23.6335 107.037 23.3886L114.481 19.6294L115.003 19.3647L117.283 18.2214L118.196 17.7628L124.631 14.5196V15.0323C124.63 15.4138 124.57 15.7931 124.456 16.1579C124.344 16.5403 124.189 16.9088 123.994 17.2563C123.802 17.6055 123.564 17.9286 123.288 18.2162C123.029 18.4893 122.723 18.7144 122.386 18.8832L118.767 20.6883L116.002 22.065L108.431 25.8575C108.214 25.9671 107.983 26.0484 107.745 26.0993M21.8242 37.2768V40.864H0.145108V39.5769C0.12745 38.4478 0.515725 37.3496 1.23984 36.4805L16.8257 14.9729H1.32462V11.3836H21.8493V12.6165C21.8876 13.6118 21.5964 14.5921 21.0204 15.4065L4.94059 37.6488C5.02955 37.5842 5.12375 37.5279 5.22317 37.48C5.31632 37.4435 5.4461 37.4008 5.60622 37.3528C5.7988 37.3039 5.99765 37.2799 6.1965 37.283L21.8242 37.2768Z" fill="#2E368E"/>
<path d="M113.481 34.6275C111.826 36.1614 109.757 37.1799 107.529 37.5576C105.3 37.9354 103.009 37.6559 100.938 36.7536C98.8652 35.8502 97.1025 34.364 95.866 32.4775C94.6278 30.5897 93.9685 28.3837 93.9685 26.129C93.9685 23.8742 94.6278 21.6683 95.866 19.7805C97.1041 17.8941 98.8665 16.408 100.938 15.5055C103.009 14.6027 105.3 14.323 107.529 14.7008C109.757 15.0785 111.827 16.0973 113.481 17.6315L116.273 16.2225L116.787 15.9671C116.619 15.7721 116.443 15.5843 116.259 15.4044C115.342 14.4856 114.309 13.6887 113.187 13.0334C112.049 12.3714 110.831 11.8566 109.563 11.5014C106.276 10.5899 102.776 10.8173 99.6358 12.1465C96.0405 13.6184 93.1481 16.4058 91.5529 19.9358C89.9555 23.4694 89.7747 27.4773 91.0474 31.1393C92.3179 34.7981 94.9469 37.8337 98.3945 39.6227C101.839 41.4092 105.84 41.811 109.573 40.7451C110.842 40.3898 112.06 39.875 113.199 39.2131C114.321 38.5599 115.354 37.7643 116.27 36.8463C116.463 36.666 116.629 36.4805 116.798 36.2835L116.282 36.024L113.481 34.6275ZM27.9463 3.08572C27.9473 2.61244 28.0646 2.14661 28.2881 1.72893C28.5116 1.31125 28.8344 0.954452 29.2284 0.689727C29.6225 0.425101 30.0759 0.261236 30.5487 0.212624C31.0215 0.164011 31.499 0.232148 31.939 0.41101C32.3791 0.589872 32.7681 0.873948 33.0717 1.23812C33.3752 1.60229 33.584 2.03533 33.6796 2.49896C33.7766 2.9625 33.7581 3.44266 33.6256 3.89742C33.4932 4.35218 33.2508 4.76768 32.9197 5.10756C32.5845 5.44529 32.1711 5.69586 31.7158 5.83724C31.2606 5.97862 30.7774 6.00649 30.3088 5.91839C29.8402 5.83029 29.4005 5.62893 29.0284 5.33199C28.6562 5.03506 28.363 4.65164 28.1745 4.21545C28.022 3.85935 27.9444 3.47594 27.9463 3.08884V3.08572ZM32.6037 40.816H29.0128V11.3836H32.6037V40.816ZM44.652 11.3836C44.7567 11.5952 44.8404 11.8151 44.9063 12.0423C44.9984 12.4508 45.0361 12.8708 45.0183 13.2898V15.8431C45.6869 15.0267 46.4504 14.2921 47.2926 13.6545C48.8458 12.4776 50.6335 11.6444 52.536 11.2106C53.4185 11.0096 54.3205 10.9062 55.2257 10.9021C56.7219 10.8774 58.2045 11.188 59.5639 11.8109C60.8409 12.4163 61.9591 13.309 62.8303 14.4185C63.7761 15.6443 64.4806 17.0371 64.9067 18.5236C65.4143 20.2714 65.6603 22.0858 65.6372 23.9065V40.7993H62.06V23.9055C62.06 20.904 61.4749 18.582 60.3059 16.9437C59.1358 15.3054 57.3336 14.4883 54.9003 14.4945C53.6076 14.4836 52.3204 14.6627 51.0802 15.0261C49.9794 15.3451 48.937 15.8377 47.9927 16.4851C47.1537 17.0552 46.4354 17.7839 45.8786 18.6299C45.3666 19.3942 45.0636 20.2782 44.9995 21.1948V40.8098H41.4222V11.3836H44.652ZM75.5694 40.8108V14.6884H70.26V12.6165C70.26 11.7567 71.4029 11.3273 73.6876 11.3273H75.5694V7.74012C75.5575 6.74295 75.7226 5.75153 76.0571 4.81158C76.3669 3.95698 76.8462 3.17534 77.4679 2.51147C78.0917 1.85615 78.8479 1.34003 79.6867 0.997172C80.6076 0.623565 81.5945 0.437861 82.5889 0.451067C83.0693 0.456277 83.5476 0.504218 84.0196 0.594888C84.5533 0.689727 85.0787 0.822085 85.5937 0.988835C86.119 1.16184 86.6329 1.37028 87.1311 1.61102C87.5937 1.8278 88.0395 2.07792 88.4655 2.35931L87.8763 3.20348C87.6316 3.55413 87.2999 3.83565 86.9134 4.02056C86.4906 4.16646 86.0437 4.23212 85.5968 4.21232C84.9344 4.18054 84.279 4.06317 83.647 3.86319L83.3372 3.80691C83.226 3.7873 83.1139 3.77339 83.0012 3.76522C82.8746 3.76522 82.7333 3.75063 82.5805 3.75063C82.0658 3.74049 81.5576 3.86674 81.108 4.11644C80.6893 4.35823 80.3251 4.68443 80.0394 5.07421C79.7495 5.46711 79.5266 5.90587 79.379 6.37173C79.2336 6.81828 79.1574 7.28427 79.1529 7.75367V11.3857H87.3823V14.6915H79.1634V40.8108H75.5694Z" fill="#28A8E0"/>
</svg>
