<svg width="24" height="25" viewBox="0 0 24 25" fill="none" xmlns="http://www.w3.org/2000/svg">
<path d="M10.125 0H13.875C14.4984 0 15 0.522461 15 1.17188V9.375H19.1109C19.9453 9.375 20.3625 10.4248 19.7719 11.04L12.6422 18.4717C12.2906 18.8379 11.7141 18.8379 11.3625 18.4717L4.22344 11.04C3.63281 10.4248 4.05 9.375 4.88438 9.375H9V1.17188C9 0.522461 9.50156 0 10.125 0ZM24 18.3594V23.8281C24 24.4775 23.4984 25 22.875 25H1.125C0.501562 25 0 24.4775 0 23.8281V18.3594C0 17.71 0.501562 17.1875 1.125 17.1875H8.00156L10.2984 19.5801C11.2406 20.5615 12.7594 20.5615 13.7016 19.5801L15.9984 17.1875H22.875C23.4984 17.1875 24 17.71 24 18.3594ZM18.1875 22.6562C18.1875 22.1191 17.7656 21.6797 17.25 21.6797C16.7344 21.6797 16.3125 22.1191 16.3125 22.6562C16.3125 23.1934 16.7344 23.6328 17.25 23.6328C17.7656 23.6328 18.1875 23.1934 18.1875 22.6562ZM21.1875 22.6562C21.1875 22.1191 20.7656 21.6797 20.25 21.6797C19.7344 21.6797 19.3125 22.1191 19.3125 22.6562C19.3125 23.1934 19.7344 23.6328 20.25 23.6328C20.7656 23.6328 21.1875 23.1934 21.1875 22.6562Z" fill="#1F6CAB"/>
</svg>
