<svg width="30" height="30" viewBox="0 0 30 30" fill="none" xmlns="http://www.w3.org/2000/svg">
<rect width="30" height="30" fill="white"/>
<path d="M18.3774 26.0777L18.391 26.0872C19.5716 26.8389 20.9733 27.1653 22.3645 27.0126C23.7557 26.8598 25.0531 26.2369 26.0424 25.2469L26.9018 24.3875C27.0923 24.1972 27.2434 23.9712 27.3464 23.7225C27.4495 23.4737 27.5026 23.2071 27.5026 22.9379C27.5026 22.6686 27.4495 22.402 27.3464 22.1533C27.2434 21.9045 27.0923 21.6785 26.9018 21.4882L23.277 17.8661C23.0867 17.6756 22.8607 17.5246 22.6119 17.4215C22.3632 17.3184 22.0966 17.2653 21.8273 17.2653C21.5581 17.2653 21.2915 17.3184 21.0427 17.4215C20.794 17.5246 20.568 17.6756 20.3777 17.8661C19.9933 18.2503 19.4721 18.4661 18.9287 18.4661C18.3852 18.4661 17.864 18.2503 17.4797 17.8661L11.6838 12.0688C11.2995 11.6845 11.0837 11.1633 11.0837 10.6198C11.0837 10.0764 11.2995 9.55516 11.6838 9.17082C11.8742 8.98049 12.0253 8.7545 12.1284 8.50576C12.2315 8.25702 12.2845 7.99041 12.2845 7.72116C12.2845 7.4519 12.2315 7.18529 12.1284 6.93655C12.0253 6.68781 11.8742 6.46182 11.6838 6.27149L8.06028 2.64938C7.67595 2.26516 7.15475 2.04932 6.6113 2.04932C6.06785 2.04932 5.54665 2.26516 5.16232 2.64938L4.30154 3.50879C3.31176 4.49825 2.68917 5.79578 2.53664 7.18697C2.3841 8.57816 2.71075 9.97977 3.46262 11.1602L3.47081 11.1738C7.44159 17.0487 12.5018 22.108 18.3774 26.0777Z" fill="white" stroke="#1F6CAB" stroke-width="3" stroke-linecap="round" stroke-linejoin="round"/>
</svg>
